<svg width="32" height="50" viewBox="0 0 32 50" fill="none" xmlns="http://www.w3.org/2000/svg">
<g clip-path="url(#clip0_0_46)">
<path d="M12.968 23.4999H3.55324V23.2369H5.99851V0.262927H4.02085C1.40879 0.262927 0.333582 3.09086 0.333582 6.11452H0V0H16.554V6.11452H16.2204C16.2204 3.09086 15.1482 0.262927 12.5331 0.262927H10.5555V23.2369H12.968V23.4999Z" fill="white"/>
<path d="M13.4028 9.96202H22.1147V10.2249H19.9702C20.0387 10.7187 20.2055 11.2445 20.4051 11.7032L24.9293 22.2203L29.1169 11.9982C29.2509 11.636 29.2837 11.3731 29.2837 11.1773C29.2837 10.5843 28.7476 10.2249 27.5741 10.2249H26.6687V9.96202H31.997V10.2249C30.5912 10.2249 30.0194 10.6193 29.516 11.8346L25.0603 22.8455V33.1989H27.2048V33.4619H18.3261V33.1989H20.4706V23.1756L14.7759 10.2249H13.4028V9.96202Z" fill="white"/>
<path d="M15.3716 26.2372C15.6069 26.2372 15.9077 26.2051 16.2413 26.1058H16.7118V31.9573H16.3783C15.9762 28.5393 15.172 26.1058 12.2889 26.1058C9.23902 26.1058 7.76471 29.4595 7.76471 38.1361C7.76471 45.9597 9.47431 49.1148 13.0603 49.1148C15.7081 49.1148 16.8816 46.3219 16.8816 44.6129H17.2152C17.2152 46.3541 16.1102 50.0029 11.4847 50.0029C6.0551 50.0029 3.04095 46.4534 3.04095 38.1391C3.04095 29.8247 6.2904 25.8457 12.2889 25.8457C13.93 25.8457 14.2666 26.2401 15.3716 26.2401V26.2372Z" fill="white"/>
</g>
<defs>
<clipPath id="clip0_0_46">
<rect width="32" height="50" fill="white"/>
</clipPath>
</defs>
</svg>
